# xmcd
#
# Track frame offsets:
#	150
#	14663
#	32735
#	46778
#	60186
#	74876
#	99283
#	116899
#	128447
#	145756
#	167018
#	180827
#	194133
#	208737
#
# Disc length: 2951 seconds
#
# Revision: 1
# Processed by: cddbd v1.5.2PL0 Copyright (c) Steve Scherf et al.
# Submitted via: audiograbber 1.83.01
#
DISCID=c40b850e
DTITLE=NAYRA LIMA - NAYRA LIMA
DYEAR=1900
DGENRE=SERESTA
TTITLE0=SÓ CASTIGO
TTITLE1=PERFÍDIA
TTITLE2=NEGUE
TTITLE3=GATINHA MANHOSA
TTITLE4=ALMA , CORAÇÃO E VIDA
TTITLE5=POUT POURRI ( CASA E COMIDA,DEVOLVI,SERIA TÃO DIFERENTE )
TTITLE6=VÁ COM DEUS
TTITLE7=TORTURA DE AMOR
TTITLE8=NÃO TEM PRA NINGUÉM
TTITLE9=MORANGO DO NORDESTE
TTITLE10=MADRUGADA AMIGA
TTITLE11=ENTRE ESPUMAS
TTITLE12=DÓI
TTITLE13=TRÊS PALAVRAS
EXTD=
EXTT0=
EXTT1=
EXTT2=
EXTT3=
EXTT4=
EXTT5=
EXTT6=
EXTT7=
EXTT8=
EXTT9=
EXTT10=
EXTT11=
EXTT12=
EXTT13=
PLAYORDER=
